<?xml version="1.0" encoding="UTF-8"?>
<svg id="Logo" xmlns="http://www.w3.org/2000/svg" xmlns:xlink="http://www.w3.org/1999/xlink" viewBox="0 0 728.95 559.6">
  <defs>
    <style>
      .cls-1 {
        fill: url(#linear-gradient-2);
      }

      .cls-2 {
        fill: url(#linear-gradient-5);
      }

      .cls-3 {
        fill: url(#linear-gradient-3);
      }

      .cls-4 {
        fill: url(#linear-gradient);
      }

      .cls-5 {
        fill: url(#linear-gradient-4);
      }
    </style>
    <linearGradient id="linear-gradient" x1="162.26" y1="426.21" x2="591.48" y2="426.21" gradientUnits="userSpaceOnUse">
      <stop offset="0" stop-color="#00d3ee"/>
      <stop offset=".47" stop-color="#008cee"/>
      <stop offset="1" stop-color="#954df3"/>
    </linearGradient>
    <linearGradient id="linear-gradient-2" x1="0" y1="283.64" x2="728.95" y2="283.64" xlink:href="#linear-gradient"/>
    <linearGradient id="linear-gradient-3" x1="137.96" y1="230.07" x2="258.94" y2="230.07" xlink:href="#linear-gradient"/>
    <linearGradient id="linear-gradient-4" x1="290.72" y1="225.94" x2="411.63" y2="225.94" xlink:href="#linear-gradient"/>
    <linearGradient id="linear-gradient-5" x1="443.51" y1="141.28" x2="564.46" y2="141.28" xlink:href="#linear-gradient"/>
  </defs>
  <path class="cls-4" d="m540.12,508.24H213.62v-119.9l-51.36-34.87v195.83c0,5.74,4.62,10.3,10.3,10.3h408.71c5.66,0,10.22-4.56,10.22-10.3v-256.48l-51.36,39.53v175.89Z"/>
  <g>
    <polygon class="cls-1" points="728.95 118.51 574.2 141.03 611.07 183.99 342.01 388.91 159.81 264.59 0 396.55 30.4 430.72 162.32 325.23 344.16 448.76 644.11 217.77 682.89 267.87 728.95 118.51"/>
    <g>
      <polygon class="cls-3" points="258.94 303.12 258.94 157.02 137.96 157.02 137.96 253.57 159.81 235.5 258.94 303.12"/>
      <polygon class="cls-5" points="411.63 306.77 411.63 92.07 290.72 92.07 290.72 324.82 342.01 359.81 411.63 306.77"/>
      <polygon class="cls-2" points="564.46 0 443.51 0 443.51 282.55 564.46 190.44 564.46 0"/>
    </g>
  </g>
</svg>