<?xml version="1.0" encoding="utf-8"?>
<!-- Generator: Adobe Illustrator 27.7.0, SVG Export Plug-In . SVG Version: 6.00 Build 0)  -->
<svg version="1.1" xmlns="http://www.w3.org/2000/svg" xmlns:xlink="http://www.w3.org/1999/xlink" x="0px" y="0px"
	 viewBox="0 0 500 500" style="enable-background:new 0 0 500 500;" xml:space="preserve">
<style type="text/css">
	.st0{fill:url(#SVGID_1_);}
	.st1{fill:url(#SVGID_00000105419547022886323910000013377698835534779803_);}
	.st2{fill:url(#SVGID_00000083077557570116280000000015559869038098712492_);}
	.st3{opacity:0.5;}
	.st4{fill:url(#SVGID_00000066502715482306621760000006556572638094308791_);}
	.st5{opacity:0.5;fill:url(#SVGID_00000078026331058836057280000012997093012338346680_);}
	.st6{fill:url(#SVGID_00000024713421736868659140000005034105165632679054_);}
	.st7{fill:url(#SVGID_00000013882528088141425660000000773090961176133026_);}
	.st8{fill:url(#SVGID_00000071526746102449830450000007142190036624356740_);}
	.st9{fill:url(#SVGID_00000108303374555785753920000008631470088213114282_);}
	.st10{fill:url(#SVGID_00000101791125316756048680000010119137317294253500_);}
	.st11{fill:url(#SVGID_00000098204473137081233620000006621976370497304231_);}
	.st12{fill:url(#SVGID_00000054234388543829832360000017839500031078792334_);}
	.st13{fill:url(#SVGID_00000148639270276149345670000001027536179500573322_);}
	.st14{fill:url(#SVGID_00000074412774949831878630000013919469247482227359_);}
	.st15{fill:url(#SVGID_00000093873959839238397510000003291022970039706801_);}
	.st16{fill:url(#SVGID_00000074431241191765425970000000642253591632854916_);}
</style>
<g id="BACKGROUND">
</g>
<g id="OBJECTS">
	<g>
		<g>
			<g>
				<g>
					<linearGradient id="SVGID_1_" gradientUnits="userSpaceOnUse" x1="5.2816" y1="250.001" x2="107.849" y2="250.001">
						<stop  offset="0" style="stop-color:#00D3ED"/>
						<stop  offset="0.4683" style="stop-color:#1A8CEB"/>
						<stop  offset="1" style="stop-color:#854EEF"/>
					</linearGradient>
					<path class="st0" d="M81.22,414.03l-13.36-13.31C27.51,360.5,5.28,306.97,5.28,250c0-56.97,22.22-110.49,62.58-150.72
						l13.36-13.31l26.63,26.72L94.49,126C61.29,159.09,43,203.13,43,250c0,46.87,18.29,90.91,51.49,124l13.36,13.31L81.22,414.03z"
						/>
				</g>
				
					<linearGradient id="SVGID_00000031928431458202946340000017445419645654886784_" gradientUnits="userSpaceOnUse" x1="69.768" y1="413.5074" x2="69.768" y2="112.42">
					<stop  offset="0" style="stop-color:#0A225C;stop-opacity:0"/>
					<stop  offset="0.2478" style="stop-color:#0A2057;stop-opacity:0.2478"/>
					<stop  offset="0.536" style="stop-color:#081949;stop-opacity:0.536"/>
					<stop  offset="0.8433" style="stop-color:#060E32;stop-opacity:0.8433"/>
					<stop  offset="1" style="stop-color:#050723"/>
				</linearGradient>
				<path style="fill:url(#SVGID_00000031928431458202946340000017445419645654886784_);" d="M81.74,413.51l26.11-26.2L94.49,374
					C61.29,340.91,43,296.87,43,250c0-46.87,18.29-90.91,51.49-124l13.36-13.31l-0.27-0.27l-13.31,13.27
					c-40.36,40.22-62.58,93.75-62.58,150.72C31.69,327.17,49.35,375.19,81.74,413.51z"/>
			</g>
			<g>
				<g>
					
						<linearGradient id="SVGID_00000106846903132389016870000004181764963146202775_" gradientUnits="userSpaceOnUse" x1="346.077" y1="500" x2="346.077" y2="-9.094947e-13">
						<stop  offset="0" style="stop-color:#00D3ED"/>
						<stop  offset="0.4683" style="stop-color:#1A8CEB"/>
						<stop  offset="1" style="stop-color:#854EEF"/>
					</linearGradient>
					<path style="fill:url(#SVGID_00000106846903132389016870000004181764963146202775_);" d="M232.16,500H210V0h22.16
						c137.85,0,250,112.15,250,250C482.16,387.85,370.01,500,232.16,500z M254.31,45.5v409c103.04-11.08,183.53-98.57,183.53-204.5
						C437.84,144.07,357.35,56.59,254.31,45.5z"/>
				</g>
				<g>
					<g class="st3">
						
							<linearGradient id="SVGID_00000074425615450827653380000005830105395549010564_" gradientUnits="userSpaceOnUse" x1="346.077" y1="500" x2="346.077" y2="44.5209">
							<stop  offset="0" style="stop-color:#0A225C;stop-opacity:0"/>
							<stop  offset="0.2478" style="stop-color:#0A2057;stop-opacity:0.2478"/>
							<stop  offset="0.536" style="stop-color:#081949;stop-opacity:0.536"/>
							<stop  offset="0.8433" style="stop-color:#060E32;stop-opacity:0.8433"/>
							<stop  offset="1" style="stop-color:#050723"/>
						</linearGradient>
						<path style="fill:url(#SVGID_00000074425615450827653380000005830105395549010564_);" d="M374.38,44.52
							c46.48,45.42,75.38,108.76,75.38,178.72c0,134.42-106.64,244.39-239.77,249.77V500h22.16c137.85,0,250-112.15,250-250
							C482.16,164.95,439.46,89.7,374.38,44.52z"/>
					</g>
					
						<linearGradient id="SVGID_00000049900961473638260630000001300405790269270446_" gradientUnits="userSpaceOnUse" x1="232.1556" y1="499.9998" x2="232.1556" y2="-3.176814e-04">
						<stop  offset="0" style="stop-color:#0A225C;stop-opacity:0"/>
						<stop  offset="0.2478" style="stop-color:#0A2057;stop-opacity:0.2478"/>
						<stop  offset="0.536" style="stop-color:#081949;stop-opacity:0.536"/>
						<stop  offset="0.8433" style="stop-color:#060E32;stop-opacity:0.8433"/>
						<stop  offset="1" style="stop-color:#050723"/>
					</linearGradient>
					<path style="opacity:0.5;fill:url(#SVGID_00000049900961473638260630000001300405790269270446_);" d="M210,45.28v444.24
						c0.84-0.7,1.69-1.39,2.52-2.1c13.65-11.64,28.72-22.36,41.8-34.85V45.89c-8.19-1.02-16.49-1.55-24.88-1.55
						C222.9,44.34,216.42,44.65,210,45.28z"/>
				</g>
			</g>
			<g>
				<g>
					
						<linearGradient id="SVGID_00000147932831301783431110000001601290350816410302_" gradientUnits="userSpaceOnUse" x1="127.4908" y1="207.6817" x2="325.1585" y2="207.6817">
						<stop  offset="0" style="stop-color:#00D3ED"/>
						<stop  offset="0.4683" style="stop-color:#1A8CEB"/>
						<stop  offset="1" style="stop-color:#854EEF"/>
					</linearGradient>
					<path style="fill:url(#SVGID_00000147932831301783431110000001601290350816410302_);" d="M199.58,280.73h9.87v0.07H210v-44.39
						h-10.42c-15.31,0-27.77-12.46-27.77-27.77v-1.99c0-15.31,12.46-27.77,27.77-27.77h125.58v-44.32H199.58
						c-39.75,0-72.09,32.34-72.09,72.09v1.99C127.49,248.39,159.83,280.73,199.58,280.73z"/>
					<g class="st3">
						
							<linearGradient id="SVGID_00000134251961136717539380000017025470242284958120_" gradientUnits="userSpaceOnUse" x1="127.4908" y1="210.8687" x2="127.6416" y2="210.8687">
							<stop  offset="0" style="stop-color:#0A225C;stop-opacity:0"/>
							<stop  offset="0.6155" style="stop-color:#071036;stop-opacity:0.6155"/>
							<stop  offset="1" style="stop-color:#050723"/>
						</linearGradient>
						<path style="fill:url(#SVGID_00000134251961136717539380000017025470242284958120_);" d="M127.49,208.64
							c0,1.5,0.06,2.98,0.15,4.45C127.55,211.62,127.49,210.14,127.49,208.64z"/>
						
							<linearGradient id="SVGID_00000175284114863301415990000002257905631386707353_" gradientUnits="userSpaceOnUse" x1="127.726" y1="215.9923" x2="128.0902" y2="215.9923">
							<stop  offset="0" style="stop-color:#0A225C;stop-opacity:0"/>
							<stop  offset="0.6155" style="stop-color:#071036;stop-opacity:0.6155"/>
							<stop  offset="1" style="stop-color:#050723"/>
						</linearGradient>
						<path style="fill:url(#SVGID_00000175284114863301415990000002257905631386707353_);" d="M128.09,217.78
							c-0.15-1.18-0.27-2.38-0.36-3.58C127.82,215.4,127.94,216.6,128.09,217.78z"/>
						
							<linearGradient id="SVGID_00000010287079678337900000000011635750341841838982_" gradientUnits="userSpaceOnUse" x1="130.0235" y1="229.8402" x2="209.9975" y2="229.8402">
							<stop  offset="0" style="stop-color:#0A225C;stop-opacity:0"/>
							<stop  offset="0.6155" style="stop-color:#071036;stop-opacity:0.6155"/>
							<stop  offset="1" style="stop-color:#050723"/>
						</linearGradient>
						<path style="fill:url(#SVGID_00000010287079678337900000000011635750341841838982_);" d="M171.81,208.64v-1.99
							c0-15.31,12.46-27.77,27.77-27.77c-0.29,0-0.57,0.03-0.86,0.04h-0.55c-31.53,0-58.39,20.36-68.14,48.62
							c8.33,30.6,36.35,53.18,69.55,53.18h9.87v0.07H210v-44.39h-10.42C184.26,236.41,171.81,223.96,171.81,208.64z"/>
						
							<linearGradient id="SVGID_00000112609201250997394460000003762445711859108025_" gradientUnits="userSpaceOnUse" x1="128.1943" y1="223.0741" x2="130.0235" y2="223.0741">
							<stop  offset="0" style="stop-color:#0A225C;stop-opacity:0"/>
							<stop  offset="0.6155" style="stop-color:#071036;stop-opacity:0.6155"/>
							<stop  offset="1" style="stop-color:#050723"/>
						</linearGradient>
						<path style="fill:url(#SVGID_00000112609201250997394460000003762445711859108025_);" d="M130.02,227.55
							c-0.79-2.91-1.4-5.9-1.83-8.95C128.62,221.65,129.23,224.63,130.02,227.55z"/>
					</g>
				</g>
				<g>
					
						<linearGradient id="SVGID_00000154427024414543435000000010987981807125627308_" gradientUnits="userSpaceOnUse" x1="126.5921" y1="309.576" x2="325.4225" y2="309.576">
						<stop  offset="0" style="stop-color:#00D3ED"/>
						<stop  offset="0.4683" style="stop-color:#1A8CEB"/>
						<stop  offset="1" style="stop-color:#854EEF"/>
					</linearGradient>
					<path style="fill:url(#SVGID_00000154427024414543435000000010987981807125627308_);" d="M254.31,236.51v44.34
						c14.86,0.52,26.79,12.74,26.79,27.72v1.99c0,15.31-12.46,27.77-27.77,27.77H126.59v44.32h126.74
						c39.75,0,72.09-32.34,72.09-72.09v-1.99C325.42,269.15,293.61,237.03,254.31,236.51z"/>
					<g class="st3">
						
							<linearGradient id="SVGID_00000178890713616096909540000013931374087153743526_" gradientUnits="userSpaceOnUse" x1="288.8886" y1="338.159" x2="288.8886" y2="236.5061">
							<stop  offset="0" style="stop-color:#0A225C;stop-opacity:0"/>
							<stop  offset="0.6155" style="stop-color:#071036;stop-opacity:0.6155"/>
							<stop  offset="1" style="stop-color:#050723"/>
						</linearGradient>
						<path style="fill:url(#SVGID_00000178890713616096909540000013931374087153743526_);" d="M281.11,308.57v1.99
							c0,14.3-10.86,26.1-24.77,27.6c31.06-1.29,57.12-22.26,65.9-50.78c0.46,1.49,0.86,3.02,1.22,4.55
							c-7.46-31.44-35.56-54.97-69.15-55.42v44.34C269.17,281.37,281.11,293.59,281.11,308.57z"/>
						
							<linearGradient id="SVGID_00000090263510891235871210000011315692930468007553_" gradientUnits="userSpaceOnUse" x1="324.8779" y1="302.4869" x2="324.8779" y2="297.7241">
							<stop  offset="0" style="stop-color:#0A225C;stop-opacity:0"/>
							<stop  offset="0.6155" style="stop-color:#071036;stop-opacity:0.6155"/>
							<stop  offset="1" style="stop-color:#050723"/>
						</linearGradient>
						<path style="fill:url(#SVGID_00000090263510891235871210000011315692930468007553_);" d="M324.61,297.72
							c0.24,1.57,0.41,3.16,0.54,4.76C325.01,300.89,324.85,299.29,324.61,297.72z"/>
						
							<linearGradient id="SVGID_00000178183538708348482990000009301011477530723992_" gradientUnits="userSpaceOnUse" x1="325.3307" y1="308.5671" x2="325.3307" y2="303.6865">
							<stop  offset="0" style="stop-color:#0A225C;stop-opacity:0"/>
							<stop  offset="0.6155" style="stop-color:#071036;stop-opacity:0.6155"/>
							<stop  offset="1" style="stop-color:#050723"/>
						</linearGradient>
						<path style="fill:url(#SVGID_00000178183538708348482990000009301011477530723992_);" d="M325.24,303.69
							c0.11,1.61,0.18,3.24,0.18,4.88C325.42,306.93,325.35,305.3,325.24,303.69z"/>
						
							<linearGradient id="SVGID_00000043437513518544212290000017695069111593096349_" gradientUnits="userSpaceOnUse" x1="254.1948" y1="338.3286" x2="254.1948" y2="338.2415">
							<stop  offset="0" style="stop-color:#0A225C;stop-opacity:0"/>
							<stop  offset="0.6155" style="stop-color:#071036;stop-opacity:0.6155"/>
							<stop  offset="1" style="stop-color:#050723"/>
						</linearGradient>
						<path style="fill:url(#SVGID_00000043437513518544212290000017695069111593096349_);" d="M255.05,338.24
							c-0.57,0.04-1.14,0.09-1.72,0.09C253.91,338.33,254.48,338.28,255.05,338.24L255.05,338.24z"/>
						
							<linearGradient id="SVGID_00000035489938379852263920000016057464609989865623_" gradientUnits="userSpaceOnUse" x1="324.1606" y1="297.7202" x2="324.1606" y2="293.0202">
							<stop  offset="0" style="stop-color:#0A225C;stop-opacity:0"/>
							<stop  offset="0.6155" style="stop-color:#071036;stop-opacity:0.6155"/>
							<stop  offset="1" style="stop-color:#050723"/>
						</linearGradient>
						<path style="fill:url(#SVGID_00000035489938379852263920000016057464609989865623_);" d="M323.71,293.02
							c0.34,1.55,0.65,3.11,0.89,4.7C324.37,296.13,324.06,294.57,323.71,293.02z"/>
					</g>
				</g>
			</g>
		</g>
	</g>
</g>
</svg>
